<?xml version="1.0" encoding="UTF-8"?>
<svg id="Warstwa_1" data-name="Warstwa 1" xmlns="http://www.w3.org/2000/svg" viewBox="0 0 899.39 309.96">
  <defs>
    <style>
      .cls-1 {
        fill: #2c2c2c;
      }

      .cls-2 {
        fill: #ee8443;
      }
    </style>
  </defs>
  <path class="cls-1" d="M335.05,176.04c-1.96,2.64-4.73,4.63-8.3,5.95-3.57,1.32-7.8,1.98-12.68,1.98-5.61,0-10.34-1-14.19-3.01-3.85-2-6.75-4.91-8.72-8.72-1.96-3.81-2.95-8.44-2.95-13.89v-3.37c0-5.37.98-9.96,2.95-13.77,1.96-3.81,4.87-6.71,8.72-8.72,3.85-2,8.58-3.01,14.19-3.01,4.65,0,8.72.7,12.2,2.1,3.49,1.4,6.21,3.41,8.18,6.01,1.96,2.61,2.95,5.83,2.95,9.68h19.12c0-7.21-1.81-13.29-5.41-18.22-3.61-4.93-8.6-8.68-14.97-11.24-6.37-2.56-13.69-3.85-21.94-3.85-14.75,0-26.07,3.61-33.97,10.82-7.89,7.21-11.84,17.84-11.84,31.86,0,9.62,1.74,17.59,5.23,23.93,3.49,6.33,8.64,11.06,15.45,14.19,6.81,3.13,15.23,4.69,25.25,4.69h0c8.42,0,15.79-1.28,22.12-3.85,6.33-2.56,11.28-6.29,14.85-11.18,3.57-4.89,5.35-10.9,5.35-18.04h-18.64c0,3.77-.98,6.97-2.95,9.62Z"/>
  <path class="cls-1" d="M420.54,136.85c-5.41-2.4-11.92-3.61-19.54-3.61s-14.11,1.2-19.48,3.61c-5.37,2.4-9.48,6.05-12.32,10.94-2.85,4.89-4.27,11.06-4.27,18.52s1.42,13.63,4.27,18.52c2.85,4.89,6.95,8.56,12.32,11,5.37,2.44,11.86,3.67,19.48,3.67s14.13-1.22,19.54-3.67c5.41-2.44,9.54-6.11,12.38-11,2.85-4.89,4.27-11.06,4.27-18.52s-1.42-13.63-4.27-18.52c-2.85-4.89-6.97-8.54-12.38-10.94ZM418.91,167.63c0,4.01-.66,7.38-1.98,10.1-1.32,2.73-3.31,4.81-5.95,6.25-2.65,1.44-5.97,2.16-9.98,2.16s-7.34-.72-9.98-2.16c-2.65-1.44-4.61-3.53-5.89-6.25-1.28-2.72-1.92-6.09-1.92-10.1v-2.52c0-4.01.64-7.4,1.92-10.16,1.28-2.76,3.25-4.85,5.89-6.25,2.65-1.4,5.97-2.1,9.98-2.1s7.34.7,9.98,2.1c2.64,1.4,4.63,3.49,5.95,6.25,1.32,2.77,1.98,6.15,1.98,10.16v2.52Z"/>
  <rect class="cls-1" x="447.16" y="110.99" width="17.79" height="87.05"/>
  <rect class="cls-1" x="477.82" y="110.99" width="17.8" height="87.05"/>
  <rect class="cls-1" x="508.48" y="134.68" width="17.79" height="63.36"/>
  <rect class="cls-1" x="508.48" y="110.99" width="17.79" height="14.19"/>
  <path class="cls-1" d="M592.82,135.82c-3.57-1.72-7.92-2.59-13.04-2.59-3.13,0-6.15.4-9.08,1.2-2.93.8-5.63,2.02-8.11,3.67-2.49,1.64-4.69,3.75-6.61,6.31h-.96l-1.32-9.74h-14.55v63.36h17.8v-35.11c0-3.04.74-5.69,2.22-7.93,1.48-2.24,3.43-4.03,5.83-5.35,2.4-1.32,5.09-1.98,8.05-1.98,2.01,0,3.81.24,5.41.72,1.6.48,2.96,1.22,4.09,2.22,1.12,1,1.98,2.3,2.58,3.91.6,1.61.9,3.53.9,5.77v37.75h17.8v-40.64c0-5.53-.95-10.08-2.83-13.65-1.89-3.56-4.61-6.21-8.18-7.93Z"/>
  <path class="cls-1" d="M668.33,136.78c-5.17-2.36-11.6-3.55-19.06-3.55s-13.87,1.2-19.24,3.61c-5.37,2.41-9.46,6.05-12.27,10.94-2.81,4.89-4.21,11.1-4.21,18.64s1.42,13.75,4.27,18.64c2.84,4.89,6.97,8.52,12.38,10.88,5.41,2.36,11.96,3.55,19.66,3.55h0c5.13,0,9.78-.55,13.95-1.63,4.17-1.08,7.73-2.65,10.7-4.69,2.96-2.04,5.25-4.53,6.85-7.45,1.6-2.92,2.41-6.23,2.41-9.92h-17.8c-.08,1.85-.6,3.45-1.56,4.81-.96,1.36-2.18,2.48-3.67,3.37-1.48.88-3.17,1.54-5.05,1.98-1.88.44-3.75.66-5.59.66-3.93,0-7.21-.58-9.86-1.74-2.65-1.16-4.65-2.95-6.01-5.35-1.36-2.4-2.16-5.45-2.41-9.14h52.18v-4.93c0-7.21-1.32-13.21-3.97-17.97-2.65-4.77-6.55-8.33-11.72-10.7ZM631.95,159.44h0c.4-2.89,1.32-5.33,2.76-7.34,1.44-2,3.43-3.49,5.95-4.45,2.52-.96,5.51-1.44,8.96-1.44,2.33,0,4.43.26,6.31.78,1.88.52,3.52,1.32,4.93,2.4,1.4,1.08,2.51,2.45,3.31,4.09.8,1.64,1.2,3.63,1.2,5.95h-33.43Z"/>
  <path class="cls-1" d="M757.84,185c-.72-.76-1.08-1.86-1.08-3.31v-27.65c0-4.89-1.2-8.86-3.61-11.9-2.4-3.05-5.91-5.29-10.52-6.73-4.61-1.44-10.12-2.16-17.01-2.16s-12.77.76-17.61,2.28c-4.85,1.52-8.54,3.67-11.06,6.43-2.53,2.76-3.79,6.03-3.79,9.8,0,.4.02.78.06,1.14.04.36.1.7.18,1.02h17.55v-1.32c0-1.36.56-2.5,1.68-3.43,1.12-.92,2.72-1.66,4.81-2.23,2.08-.56,4.61-.84,7.58-.84,3.37,0,6.07.36,8.11,1.08,2.05.72,3.55,1.82,4.51,3.31.96,1.48,1.44,3.31,1.44,5.47v3.61c-7.14,0-13.65.24-19.54.72-5.89.48-11,1.46-15.33,2.95-4.33,1.48-7.68,3.67-10.04,6.55-2.36,2.89-3.55,6.69-3.55,11.42,0,3.69.68,6.73,2.05,9.14,1.36,2.41,3.19,4.27,5.47,5.59,2.28,1.32,4.85,2.24,7.7,2.77,2.84.52,5.75.78,8.72.78h0c3.68,0,7.09-.36,10.22-1.08,3.12-.72,5.93-1.78,8.41-3.19,2.49-1.4,4.65-2.98,6.49-4.75h.84c.48,1.68,1.26,3.23,2.34,4.63,1.08,1.4,2.6,2.48,4.57,3.25,1.96.76,4.47,1.14,7.51,1.14,2.48,0,4.71-.26,6.67-.78,1.96-.52,3.43-.94,4.39-1.26v-11.3h-5.17c-1.28,0-2.28-.38-3.01-1.14ZM739.09,173.63c0,2.01-.58,3.81-1.74,5.41-1.16,1.6-2.69,2.94-4.57,4.03-1.88,1.08-3.95,1.92-6.19,2.52-2.25.6-4.49.9-6.73.9-2.09,0-3.99-.22-5.71-.66-1.73-.44-3.09-1.12-4.09-2.05-1-.92-1.5-2.18-1.5-3.79,0-2.48,1.18-4.45,3.55-5.89,2.36-1.44,5.81-2.46,10.34-3.07,4.53-.6,10.08-.9,16.65-.9v3.49Z"/>
  <path class="cls-1" d="M804.85,133.24c-2.81,0-5.33.52-7.58,1.56-2.25,1.04-4.13,2.46-5.65,4.27-1.52,1.8-2.72,3.83-3.61,6.07h-.96l-1.32-10.46h-14.55v63.36h17.8v-30.78c0-2.48.32-4.79.96-6.91.64-2.12,1.6-3.97,2.89-5.53,1.28-1.56,2.92-2.76,4.93-3.61,2-.84,4.41-1.26,7.21-1.26h7.09v-15.51c-.88-.32-1.94-.6-3.19-.84-1.24-.24-2.58-.36-4.03-.36Z"/>
  <path class="cls-1" d="M166.79,133.23h-.09c-12.53.04-21.08,8.77-21.08,20.65,0,11.88,8.55,20.6,21.08,20.65h.09c9.38-.03,16.53-4.93,19.53-12.38h46.22v-16.53h-46.22c-3-7.45-10.15-12.35-19.53-12.38Z"/>
  <path class="cls-2" d="M166.74,84.98h0c-41.93,0-70.56,29.12-70.62,68.77h0s0,.04,0,.06,0,.04,0,.06h0c.06,39.65,28.68,68.78,70.62,68.78v.11c30.63,0,58.28-16.95,65.79-46.85,0,.05-34.15.05-34.15,0-6.36,10.49-19.67,16.74-31.64,16.74v-.11c-22.38,0-38.77-16.3-38.8-38.73.03-22.43,16.43-38.73,38.8-38.73,11.97,0,25.28,6.25,31.64,16.75,0-.05,34.15-.05,34.15,0-7.51-29.9-35.16-46.85-65.79-46.85Z"/>
</svg>